HIERARCHY
ROOT Hips
{
	OFFSET 0.000000 71.427986 0.000000
	CHANNELS 6 Xposition Yposition Zposition Xrotation Yrotation Zrotation
	JOINT Pelvis
	{
		OFFSET 0.000000 0.000000 0.000000
		CHANNELS 3 Xrotation Yrotation Zrotation
		JOINT LeftUpLeg
		{
			OFFSET 6.797100 -2.508499 -1.318700
			CHANNELS 3 Xrotation Yrotation Zrotation
			JOINT LeftLeg
			{
				OFFSET 0.069008 -29.241863 0.690200
				CHANNELS 3 Xrotation Yrotation Zrotation
				JOINT LeftFoot
				{
					OFFSET -0.069008 -29.568123 -0.266800
					CHANNELS 3 Xrotation Yrotation Zrotation
					JOINT LeftToeBase
					{
						OFFSET 3.145500 -8.631000 16.059900
						CHANNELS 3 Xrotation Yrotation Zrotation
						End Site
						{
							OFFSET 0.000000 18.501587 0.000000
						}
					}
				}
			}
			JOINT Left_ShortSleeve
			{
				OFFSET 0.265923 -10.480953 1.153800
				CHANNELS 3 Xrotation Yrotation Zrotation
				End Site
				{
					OFFSET 1.725763 19.823879 0.000000
				}
			}
		}
		JOINT RightUpLeg
		{
			OFFSET -6.797100 -2.508499 -1.318700
			CHANNELS 3 Xrotation Yrotation Zrotation
			JOINT RightLeg
			{
				OFFSET -0.082453 -29.241932 0.688000
				CHANNELS 3 Xrotation Yrotation Zrotation
				JOINT RightFoot
				{
					OFFSET 0.082453 -29.568058 -0.264600
					CHANNELS 3 Xrotation Yrotation Zrotation
					JOINT RightToeBase
					{
						OFFSET -3.115300 -8.682800 16.113400
						CHANNELS 3 Xrotation Yrotation Zrotation
						End Site
						{
							OFFSET 0.000000 18.567114 0.000000
						}
					}
				}
			}
			JOINT Right_ShortSleeve
			{
				OFFSET -0.265923 -10.480953 1.153800
				CHANNELS 3 Xrotation Yrotation Zrotation
				End Site
				{
					OFFSET -1.725766 19.823910 0.000000
				}
			}
		}
	}
	JOINT Spine
	{
		OFFSET 0.000000 13.368103 0.470500
		CHANNELS 3 Xrotation Yrotation Zrotation
		JOINT Spine1
		{
			OFFSET 0.147000 13.837402 0.538800
			CHANNELS 3 Xrotation Yrotation Zrotation
			JOINT Spine2
			{
				OFFSET 0.168000 16.242897 -1.435500
				CHANNELS 3 Xrotation Yrotation Zrotation
				JOINT Neck
				{
					OFFSET 0.217200 18.631500 -1.679100
					CHANNELS 3 Xrotation Yrotation Zrotation
					JOINT Head
					{
						OFFSET 0.000000 6.599396 1.385900
						CHANNELS 3 Xrotation Yrotation Zrotation
						JOINT Hat
						{
							OFFSET -0.532200 27.220596 -10.096100
							CHANNELS 3 Xrotation Yrotation Zrotation
							End Site
							{
								OFFSET 0.000000 22.029861 0.000000
							}
						}
						JOINT HairD
						{
							OFFSET -10.777400 17.437393 -1.325900
							CHANNELS 3 Xrotation Yrotation Zrotation
							JOINT HairD1
							{
								OFFSET -3.290299 -11.051193 1.062200
								CHANNELS 3 Xrotation Yrotation Zrotation
								End Site
								{
									OFFSET 0.000000 11.579437 0.000000
								}
							}
						}
						JOINT HairB
						{
							OFFSET -10.777400 17.437393 1.467900
							CHANNELS 3 Xrotation Yrotation Zrotation
							JOINT HairB1
							{
								OFFSET -1.561200 -12.956299 3.590200
								CHANNELS 3 Xrotation Yrotation Zrotation
								End Site
								{
									OFFSET 0.000000 13.534866 0.000000
								}
							}
						}
						JOINT HairA
						{
							OFFSET 9.713100 17.437393 1.467900
							CHANNELS 3 Xrotation Yrotation Zrotation
							JOINT HairA1
							{
								OFFSET 1.561200 -12.956299 3.590200
								CHANNELS 3 Xrotation Yrotation Zrotation
								End Site
								{
									OFFSET 0.000000 13.534866 0.000000
								}
							}
						}
						JOINT HairC
						{
							OFFSET 9.713100 17.437393 -1.325900
							CHANNELS 3 Xrotation Yrotation Zrotation
							JOINT HairC1
							{
								OFFSET 3.290300 -11.051193 1.062200
								CHANNELS 3 Xrotation Yrotation Zrotation
								End Site
								{
									OFFSET 0.000000 11.579437 0.000000
								}
							}
						}
					}
				}
				JOINT LeftShoulder
				{
					OFFSET 5.101800 15.108002 -2.763700
					CHANNELS 3 Xrotation Yrotation Zrotation
					JOINT LeftArm
					{
						OFFSET 9.825497 2.506317 -1.597400
						CHANNELS 3 Xrotation Yrotation Zrotation
						JOINT LeftForeArm
						{
							OFFSET 21.966244 0.000000 0.000000
							CHANNELS 3 Xrotation Yrotation Zrotation
							JOINT LeftHand
							{
								OFFSET 33.879036 0.000000 0.000000
								CHANNELS 3 Xrotation Yrotation Zrotation
								JOINT LeftHandThumb1
								{
									OFFSET 6.715286 -2.359680 3.363841
									CHANNELS 3 Xrotation Yrotation Zrotation
									JOINT LeftHandThumb2
									{
										OFFSET 2.507072 -1.447464 1.447461
										CHANNELS 3 Xrotation Yrotation Zrotation
										JOINT LeftHandThumb3
										{
											OFFSET 2.898338 -1.673355 1.673357
											CHANNELS 3 Xrotation Yrotation Zrotation
											End Site
											{
												OFFSET -0.295959 3.727692 -0.131651
											}
										}
									}
								}
								JOINT LeftHandIndex1
								{
									OFFSET 14.190811 -0.254547 3.840278
									CHANNELS 3 Xrotation Yrotation Zrotation
									JOINT LeftHandIndex2
									{
										OFFSET 3.551727 0.000000 -0.000000
										CHANNELS 3 Xrotation Yrotation Zrotation
										JOINT LeftHandIndex3
										{
											OFFSET 2.894196 0.000000 0.000000
											CHANNELS 3 Xrotation Yrotation Zrotation
											End Site
											{
												OFFSET -1.000603 2.690872 0.366626
											}
										}
									}
								}
								JOINT LeftHandMiddle1
								{
									OFFSET 13.776489 0.000000 0.000000
									CHANNELS 3 Xrotation Yrotation Zrotation
									JOINT LeftHandMiddle2
									{
										OFFSET 3.438232 0.000000 0.000000
										CHANNELS 3 Xrotation Yrotation Zrotation
										JOINT LeftHandMiddle3
										{
											OFFSET 3.691551 0.000000 0.000000
											CHANNELS 3 Xrotation Yrotation Zrotation
											End Site
											{
												OFFSET -1.082298 3.499527 0.457670
											}
										}
									}
								}
								JOINT LeftHandRing1
								{
									OFFSET 13.966164 -0.268127 -3.067488
									CHANNELS 3 Xrotation Yrotation Zrotation
									JOINT LeftHandRing2
									{
										OFFSET 3.162567 0.000000 0.000000
										CHANNELS 3 Xrotation Yrotation Zrotation
										JOINT LeftHandRing3
										{
											OFFSET 3.324348 0.000000 0.000000
											CHANNELS 3 Xrotation Yrotation Zrotation
											End Site
											{
												OFFSET -0.861900 3.184998 0.405154
											}
										}
									}
								}
								JOINT LeftHandPinky1
								{
									OFFSET 13.131393 -0.168503 -5.746925
									CHANNELS 3 Xrotation Yrotation Zrotation
									JOINT LeftHandPinky2
									{
										OFFSET 2.849182 0.000000 0.000000
										CHANNELS 3 Xrotation Yrotation Zrotation
										JOINT LeftHandPinky3
										{
											OFFSET 2.805038 0.000000 0.000000
											CHANNELS 3 Xrotation Yrotation Zrotation
											End Site
											{
												OFFSET -0.882500 2.642609 0.325652
											}
										}
									}
								}
							}
							JOINT Left_Sleeve
							{
								OFFSET 6.592125 -0.646545 0.805568
								CHANNELS 3 Xrotation Yrotation Zrotation
								End Site
								{
									OFFSET -0.000179 20.275787 -0.000000
								}
							}
						}
					}
				}
				JOINT RightShoulder
				{
					OFFSET -5.731700 15.108002 -2.763700
					CHANNELS 3 Xrotation Yrotation Zrotation
					JOINT RightArm
					{
						OFFSET -9.825497 2.506317 -1.597400
						CHANNELS 3 Xrotation Yrotation Zrotation
						JOINT RightForeArm
						{
							OFFSET -21.966242 0.000000 0.000000
							CHANNELS 3 Xrotation Yrotation Zrotation
							JOINT RightHand
							{
								OFFSET -33.879032 0.000000 0.000000
								CHANNELS 3 Xrotation Yrotation Zrotation
								JOINT RightHandThumb1
								{
									OFFSET -6.715286 -2.359680 3.363841
									CHANNELS 3 Xrotation Yrotation Zrotation
									JOINT RightHandThumb2
									{
										OFFSET -2.507072 -1.447464 1.447461
										CHANNELS 3 Xrotation Yrotation Zrotation
										JOINT RightHandThumb3
										{
											OFFSET -2.898338 -1.673355 1.673357
											CHANNELS 3 Xrotation Yrotation Zrotation
											End Site
											{
												OFFSET 0.295959 3.727692 -0.131651
											}
										}
									}
								}
								JOINT RightHandIndex1
								{
									OFFSET -14.190811 -0.254547 3.840278
									CHANNELS 3 Xrotation Yrotation Zrotation
									JOINT RightHandIndex2
									{
										OFFSET -3.551727 0.000000 -0.000000
										CHANNELS 3 Xrotation Yrotation Zrotation
										JOINT RightHandIndex3
										{
											OFFSET -2.894196 0.000000 0.000000
											CHANNELS 3 Xrotation Yrotation Zrotation
											End Site
											{
												OFFSET 1.000603 2.690872 0.366626
											}
										}
									}
								}
								JOINT RightHandMiddle1
								{
									OFFSET -13.776489 0.000000 0.000000
									CHANNELS 3 Xrotation Yrotation Zrotation
									JOINT RightHandMiddle2
									{
										OFFSET -3.438232 0.000000 0.000000
										CHANNELS 3 Xrotation Yrotation Zrotation
										JOINT RightHandMiddle3
										{
											OFFSET -3.691551 0.000000 0.000000
											CHANNELS 3 Xrotation Yrotation Zrotation
											End Site
											{
												OFFSET 1.082298 3.499527 0.457670
											}
										}
									}
								}
								JOINT RightHandRing1
								{
									OFFSET -13.966164 -0.268127 -3.067488
									CHANNELS 3 Xrotation Yrotation Zrotation
									JOINT RightHandRing2
									{
										OFFSET -3.162567 0.000000 0.000000
										CHANNELS 3 Xrotation Yrotation Zrotation
										JOINT RightHandRing3
										{
											OFFSET -3.324348 0.000000 0.000000
											CHANNELS 3 Xrotation Yrotation Zrotation
											End Site
											{
												OFFSET 0.861900 3.184998 0.405154
											}
										}
									}
								}
								JOINT RightHandPinky1
								{
									OFFSET -13.131393 -0.168503 -5.746925
									CHANNELS 3 Xrotation Yrotation Zrotation
									JOINT RightHandPinky2
									{
										OFFSET -2.849182 0.000000 0.000000
										CHANNELS 3 Xrotation Yrotation Zrotation
										JOINT RightHandPinky3
										{
											OFFSET -2.805038 0.000000 0.000000
											CHANNELS 3 Xrotation Yrotation Zrotation
											End Site
											{
												OFFSET 0.882500 2.642609 0.325652
											}
										}
									}
								}
							}
							JOINT Right_Sleeve
							{
								OFFSET -6.592125 -0.646545 0.805568
								CHANNELS 3 Xrotation Yrotation Zrotation
								End Site
								{
									OFFSET 0.000179 20.275787 -0.000000
								}
							}
						}
					}
				}
				JOINT Bind_Right_JacketString
				{
					OFFSET -3.534800 11.969597 7.200700
					CHANNELS 3 Xrotation Yrotation Zrotation
					JOINT Bind_Right_JacketString1
					{
						OFFSET -0.319900 -6.102600 2.794100
						CHANNELS 3 Xrotation Yrotation Zrotation
						End Site
						{
							OFFSET 0.000000 6.719452 0.000000
						}
					}
				}
				JOINT Bind_Left_JacketString
				{
					OFFSET 2.904800 11.969597 7.200700
					CHANNELS 3 Xrotation Yrotation Zrotation
					JOINT Bind_Left_JacketString1
					{
						OFFSET 0.364800 -5.904503 3.186800
						CHANNELS 3 Xrotation Yrotation Zrotation
						End Site
						{
							OFFSET 0.000000 6.719513 0.000000
						}
					}
				}
				JOINT HairE
				{
					OFFSET 5.915200 17.612701 -11.592200
					CHANNELS 3 Xrotation Yrotation Zrotation
					JOINT HairE1
					{
						OFFSET 0.289200 -7.171898 -1.284500
						CHANNELS 3 Xrotation Yrotation Zrotation
						End Site
						{
							OFFSET 0.000000 7.291756 0.000000
						}
					}
				}
				JOINT HairF
				{
					OFFSET -0.864800 17.612701 -11.592200
					CHANNELS 3 Xrotation Yrotation Zrotation
					JOINT HairF1
					{
						OFFSET 0.000000 -14.087097 -2.127501
						CHANNELS 3 Xrotation Yrotation Zrotation
						End Site
						{
							OFFSET 0.000000 14.246841 0.000000
						}
					}
				}
				JOINT HairG
				{
					OFFSET -8.087700 17.612701 -11.592200
					CHANNELS 3 Xrotation Yrotation Zrotation
					JOINT HairG1
					{
						OFFSET -0.293600 -6.081398 -0.910100
						CHANNELS 3 Xrotation Yrotation Zrotation
						End Site
						{
							OFFSET 0.000000 6.156120 0.000000
						}
					}
				}
			}
		}
	}
	JOINT Pouch
	{
		OFFSET 0.000000 4.394501 10.847300
		CHANNELS 3 Xrotation Yrotation Zrotation
		End Site
		{
			OFFSET 0.000000 21.880577 0.000000
		}
	}
	JOINT Bag
	{
		OFFSET -13.229000 4.813004 -0.593300
		CHANNELS 3 Xrotation Yrotation Zrotation
		End Site
		{
			OFFSET 0.000000 21.880577 0.000000
		}
	}
	JOINT OccupyGuyFacialAnim_Joint
	{
		OFFSET 1.000000 -70.206398 -1.655000
		CHANNELS 3 Xrotation Yrotation Zrotation
		End Site
		{
			OFFSET 0.000000 21.880577 0.000000
		}
	}
}
MOTION
Frames: 4
Frame Time: 0.033333
-0.040951 67.626678 0.017397 5.048659 -15.584002 0.097363 -0.000000 0.000001 -0.000000 -32.149574 3.468458 8.976369 31.582747 4.743428 1.578289 -3.826316 0.568791 -6.009924 -0.000000 -0.000000 -0.000000 -0.000001 0.000000 -0.000000 -15.059167 -10.960007 -11.515984 32.882126 -6.406916 1.588963 -20.354000 -2.425471 10.593325 -0.000000 -0.000001 0.000000 -0.000001 -0.000001 -0.000000 23.085908 4.341048 -0.217416 3.699064 1.240285 -0.840912 3.692181 1.313818 -0.845959 -12.698313 1.122657 2.284734 -14.088192 7.830452 -3.299429 -0.000000 0.000000 0.000000 -0.000000 0.000000 0.000000 -0.000000 0.000000 0.000000 -0.000000 0.000000 0.000000 -0.000000 0.000000 0.000000 -0.000000 0.000000 0.000000 -0.000000 0.000000 0.000000 -0.000000 0.000000 0.000000 -0.000000 0.000000 0.000000 7.812693 -20.949869 9.748531 -32.800816 -13.469565 -85.325045 -0.095620 -43.170081 2.211404 -24.794997 -10.866543 -12.598952 -7.471927 1.860680 -7.166921 30.987004 27.310523 -4.510882 0.000001 -0.000000 0.000001 -4.707373 11.366718 -75.214453 -0.816397 3.073976 -46.874642 0.000001 0.000004 -0.000005 1.623370 16.580957 -84.691286 0.018017 0.022031 -72.884853 0.000001 -0.000000 0.000001 -6.443175 23.132625 -76.210158 0.012884 0.975925 -51.002990 0.000001 -0.000001 -0.000001 -17.098979 22.128959 -43.123168 0.019737 0.027034 -78.662906 0.000000 0.000001 -0.000000 0.000000 0.000002 -0.000000 13.916976 27.241156 -23.493040 -40.989512 17.653679 84.578110 -0.199379 57.240298 -13.710053 -30.456404 16.096604 8.636294 9.347177 2.810534 -11.364532 16.169066 -43.265990 15.843571 -0.000000 -0.000001 0.000002 17.076781 -0.396558 31.924349 -0.204430 -0.284190 112.811564 -0.000001 0.000000 0.000000 9.205487 -5.035906 102.738107 0.014978 -0.019218 61.018506 0.000001 -0.000001 0.000001 5.569123 -8.935199 107.329101 0.547991 -0.005787 41.263714 0.000001 0.000000 0.000000 6.511253 -17.148250 98.228031 0.007398 -0.015751 43.845751 0.000001 0.000006 -0.000002 0.000000 0.000002 0.000000 -0.000001 0.000000 0.000000 0.000001 -0.000001 0.000001 -0.000001 0.000000 -0.000000 -0.000001 0.000000 -0.000000 -0.000001 0.000000 0.000000 0.000001 -0.000001 0.000000 -0.000001 0.000000 -0.000000 -0.000001 0.000000 -0.000000 -0.000001 0.000000 0.000000 0.000001 -0.000001 0.000000 -0.000000 0.000001 -0.000000 -0.000000 0.000001 -0.000000 -0.000000 0.000001 -0.000000 
-0.333106 67.923721 1.153134 4.830004 -12.085207 0.091248 0.000001 -0.000000 -0.000000 -32.050000 4.595987 8.755646 34.084174 6.258634 0.243532 -5.550700 0.441350 -3.425441 -0.000000 -0.000000 -0.000000 -0.000000 0.000000 -0.000000 -11.779279 -11.765216 -11.320906 30.668915 -8.856841 1.737795 -20.086162 -2.608318 11.699031 0.000000 -0.000003 0.000000 0.000000 0.000001 -0.000001 21.819847 4.174790 -0.260872 3.858944 1.128140 -0.909804 3.798271 1.246008 -0.911657 -13.505965 0.440751 2.656686 -12.366450 6.422706 -2.607600 0.000000 -0.000000 0.000000 0.000000 -0.000000 0.000000 0.000000 -0.000000 0.000000 0.000000 -0.000000 -0.000000 0.000000 0.000000 -0.000000 0.000000 -0.000000 -0.000000 0.000000 0.000000 -0.000000 0.000000 -0.000000 0.000000 0.000000 -0.000000 0.000000 7.020023 -23.636319 8.179956 -29.251989 -11.446381 -81.221502 -0.068752 -49.027224 8.007955 -19.390079 -3.092454 -20.352581 -7.471923 1.860678 -7.166924 30.987014 27.310523 -4.510887 0.000002 -0.000000 -0.000001 -4.707370 11.366721 -75.214460 -0.816399 3.073974 -46.874642 -0.000001 -0.000002 -0.000000 1.623372 16.580959 -84.691286 0.018019 0.022033 -72.884853 0.000000 -0.000000 0.000002 -6.443180 23.132618 -76.210165 0.012883 0.975925 -51.002993 -0.000000 0.000000 -0.000004 -17.098979 22.128954 -43.123178 0.019737 0.027031 -78.662872 0.000002 -0.000001 0.000001 -0.000000 0.000000 -0.000000 9.829904 34.037268 -17.201850 -35.723747 15.190271 76.694890 -0.368753 58.082044 -10.489075 -33.505483 17.389800 3.517382 9.347180 2.810533 -11.364530 16.169062 -43.265990 15.843570 0.000000 -0.000001 0.000001 17.076786 -0.396557 31.924352 -0.204430 -0.284189 112.811564 -0.000000 -0.000002 -0.000002 9.205489 -5.035905 102.738107 0.014978 -0.019215 61.018506 0.000001 0.000000 -0.000001 5.569125 -8.935200 107.329101 0.547990 -0.005787 41.263714 -0.000001 -0.000003 -0.000001 6.511257 -17.148252 98.228024 0.007398 -0.015749 43.845744 0.000001 0.000002 0.000004 0.000002 0.000002 0.000002 -0.000001 0.000000 -0.000000 0.000001 -0.000000 0.000000 -0.000001 0.000000 -0.000000 -0.000001 0.000000 -0.000000 -0.000001 0.000000 -0.000000 0.000001 -0.000000 0.000000 -0.000001 0.000000 -0.000000 -0.000001 0.000000 -0.000000 -0.000001 0.000000 -0.000000 0.000001 -0.000000 0.000000 0.000001 -0.000000 -0.000000 0.000001 -0.000000 -0.000000 0.000001 -0.000000 -0.000000 
-0.554343 68.194794 2.633882 4.519972 -7.855502 0.062779 -0.000000 0.000001 -0.000000 -31.600744 6.636978 7.335523 37.116262 19.965177 -0.287104 -7.988175 0.226969 -0.813065 -0.000000 0.000002 0.000000 -0.000002 0.000000 -0.000000 -7.237282 -12.055451 -10.107953 27.340619 -13.236469 1.142550 -19.677850 -2.844340 13.257977 0.000000 0.000000 -0.000000 0.000000 -0.000001 -0.000000 19.604284 4.096700 -0.186941 4.122691 1.006388 -1.025579 4.010592 1.171092 -1.024008 -13.960278 -0.656655 3.091452 -9.709149 4.468940 -1.976765 0.000001 -0.000000 0.000000 0.000001 -0.000000 0.000000 0.000001 -0.000000 0.000000 0.000001 -0.000000 -0.000000 0.000001 -0.000000 -0.000000 0.000001 -0.000000 -0.000000 0.000001 -0.000000 -0.000000 0.000001 -0.000000 0.000000 0.000001 -0.000000 0.000000 6.624738 -26.921964 7.798700 -26.564119 -9.715341 -78.086110 0.112538 -53.915492 14.122263 -14.226592 1.793431 -26.788834 -7.471921 1.860679 -7.166923 30.987014 27.310527 -4.510885 -0.000003 0.000001 -0.000002 -4.707368 11.366721 -75.214446 -0.816399 3.073979 -46.874642 -0.000000 0.000001 -0.000002 1.623374 16.580959 -84.691279 0.018011 0.022034 -72.884853 -0.000000 0.000001 -0.000001 -6.443161 23.132623 -76.210178 0.012881 0.975925 -51.002993 0.000001 -0.000003 -0.000003 -17.098964 22.128957 -43.123168 0.019742 0.027026 -78.662872 -0.000001 -0.000003 -0.000004 0.000001 0.000002 -0.000000 5.274471 39.476994 -10.008975 -31.867945 12.588820 68.769077 -0.462441 58.492019 -6.935260 -37.389460 18.994329 0.573843 9.347177 2.810529 -11.364529 16.169066 -43.265984 15.843571 -0.000001 0.000001 0.000001 17.076784 -0.396557 31.924352 -0.204429 -0.284189 112.811557 -0.000002 -0.000001 0.000000 9.205491 -5.035904 102.738107 0.014976 -0.019215 61.018506 0.000002 -0.000001 0.000001 5.569126 -8.935201 107.329101 0.547994 -0.005785 41.263710 -0.000001 -0.000001 -0.000001 6.511257 -17.148250 98.228031 0.007397 -0.015749 43.845747 0.000001 0.000002 -0.000001 -0.000001 -0.000002 0.000004 -0.000002 -0.000000 -0.000000 -0.000000 0.000000 -0.000000 -0.000002 -0.000000 -0.000000 -0.000002 -0.000000 -0.000000 -0.000002 -0.000000 -0.000000 -0.000000 0.000000 -0.000000 -0.000002 -0.000000 -0.000000 -0.000002 -0.000000 -0.000000 -0.000002 -0.000000 -0.000000 -0.000000 0.000000 -0.000000 -0.000000 0.000001 -0.000000 -0.000000 0.000001 -0.000000 -0.000000 0.000001 -0.000000 
-0.615336 68.369507 4.518623 4.059027 -2.715496 0.155596 -0.000000 -0.000000 -0.000000 -29.958289 8.253556 6.754188 39.189173 30.815266 -2.146528 -9.579028 0.302928 -1.105395 -0.000000 0.000000 -0.000000 -0.000001 0.000000 -0.000000 -1.925912 -12.340922 -8.249131 23.759009 -19.467021 0.307141 -19.770660 -2.925724 13.647981 -0.000000 0.000002 -0.000000 0.000000 -0.000000 -0.000001 16.316122 4.096613 -0.045330 4.521461 0.895219 -1.236529 4.355636 1.107874 -1.224823 -13.989379 -2.300650 3.466243 -5.687128 1.732650 -1.511522 -0.000001 -0.000000 -0.000000 -0.000001 -0.000000 -0.000000 -0.000001 -0.000000 -0.000000 -0.000001 -0.000000 -0.000000 -0.000001 0.000000 -0.000000 -0.000001 -0.000000 -0.000000 -0.000001 0.000000 -0.000000 -0.000001 -0.000000 -0.000000 -0.000001 -0.000000 -0.000000 7.052888 -32.199919 8.341608 -22.785661 -6.983737 -74.316304 0.336037 -61.079636 19.722526 -9.937622 6.287913 -28.754656 -7.471926 1.860684 -7.166927 30.987011 27.310525 -4.510886 -0.000002 -0.000000 -0.000000 -4.707369 11.366721 -75.214453 -0.816397 3.073977 -46.874639 0.000004 -0.000002 0.000003 1.623371 16.580955 -84.691286 0.018014 0.022027 -72.884853 0.000000 0.000000 0.000001 -6.443171 23.132620 -76.210178 0.012879 0.975925 -51.002996 0.000001 0.000007 -0.000004 -17.098972 22.128961 -43.123178 0.019744 0.027024 -78.662913 -0.000001 -0.000001 -0.000004 0.000003 -0.000001 0.000001 1.499858 42.995522 -3.528366 -29.846110 10.778555 61.590281 -0.275906 59.440664 -3.865245 -42.413170 20.339028 -0.139408 9.347180 2.810534 -11.364533 16.169068 -43.265990 15.843573 -0.000002 0.000001 0.000003 17.076786 -0.396558 31.924352 -0.204431 -0.284188 112.811564 0.000000 -0.000000 0.000002 9.205489 -5.035905 102.738100 0.014976 -0.019214 61.018513 -0.000000 0.000000 -0.000001 5.569127 -8.935201 107.329101 0.547991 -0.005791 41.263714 -0.000001 -0.000001 0.000001 6.511258 -17.148254 98.228031 0.007394 -0.015748 43.845744 0.000001 -0.000001 0.000000 -0.000001 -0.000000 -0.000001 0.000001 0.000000 0.000000 0.000001 -0.000000 0.000000 0.000001 0.000000 0.000000 0.000001 0.000000 0.000000 0.000001 0.000000 0.000000 0.000001 -0.000000 0.000000 0.000001 0.000000 0.000000 0.000001 0.000000 0.000000 0.000001 0.000000 0.000000 0.000001 -0.000000 0.000000 -0.000000 -0.000000 -0.000000 -0.000000 -0.000000 -0.000000 -0.000000 -0.000000 -0.000000 
